<svg width="18" height="15" viewBox="0 0 18 15" fill="none" xmlns="http://www.w3.org/2000/svg">
<path fill-rule="evenodd" clip-rule="evenodd" d="M16.2749 0.783325H1.72494C0.835776 0.783325 0.108276 1.51083 0.108276 2.39999V12.9083C0.108276 13.7975 0.835776 14.525 1.72494 14.525H16.2749C17.1641 14.525 17.8916 13.7975 17.8916 12.9083V2.39999C17.8916 1.51083 17.1641 0.783325 16.2749 0.783325ZM16.2749 12.1C16.2749 12.5446 15.9111 12.9083 15.4665 12.9083H8.99988V2.4H15.4665C15.9111 2.4 16.2749 2.76375 16.2749 3.20833V12.1ZM14.8603 5.22917H10.4145C10.083 5.22917 9.80821 5.504 9.80821 5.83542C9.80821 6.16683 10.083 6.44167 10.4145 6.44167H14.8603C15.1917 6.44167 15.4665 6.16683 15.4665 5.83542C15.4665 5.504 15.1917 5.22917 14.8603 5.22917ZM14.8603 7.25H10.4145C10.083 7.25 9.80821 7.52483 9.80821 7.85625C9.80821 8.18767 10.083 8.4625 10.4145 8.4625H14.8603C15.1917 8.4625 15.4665 8.18767 15.4665 7.85625C15.4665 7.52483 15.1917 7.25 14.8603 7.25ZM14.8603 9.27083H10.4145C10.083 9.27083 9.80821 9.54567 9.80821 9.87708C9.80821 10.2085 10.083 10.4833 10.4145 10.4833H14.8603C15.1917 10.4833 15.4665 10.2085 15.4665 9.87708C15.4665 9.54567 15.1917 9.27083 14.8603 9.27083Z" fill="#8833FF"/>
</svg>
