<svg width="20" height="21" viewBox="0 0 20 21" fill="none" xmlns="http://www.w3.org/2000/svg">
<path fill-rule="evenodd" clip-rule="evenodd" d="M10 5.26965C9.45 5.26965 9 5.71965 9 6.26965V9.26965H6C5.45 9.26965 5 9.71965 5 10.2697C5 10.8197 5.45 11.2697 6 11.2697H9V14.2697C9 14.8197 9.45 15.2697 10 15.2697C10.55 15.2697 11 14.8197 11 14.2697V11.2697H14C14.55 11.2697 15 10.8197 15 10.2697C15 9.71965 14.55 9.26965 14 9.26965H11V6.26965C11 5.71965 10.55 5.26965 10 5.26965ZM10 0.269653C4.48 0.269653 0 4.74965 0 10.2697C0 15.7897 4.48 20.2697 10 20.2697C15.52 20.2697 20 15.7897 20 10.2697C20 4.74965 15.52 0.269653 10 0.269653ZM10 18.2697C5.59 18.2697 2 14.6797 2 10.2697C2 5.85965 5.59 2.26965 10 2.26965C14.41 2.26965 18 5.85965 18 10.2697C18 14.6797 14.41 18.2697 10 18.2697Z" fill="#DADEE6"/>
</svg>
