<svg width="26" height="17" viewBox="0 0 26 17" fill="none" xmlns="http://www.w3.org/2000/svg">
<path d="M1.45999 0.318359C0.805696 0.318359 0.274902 0.848466 0.274902 1.50266V15.1284C0.274902 15.7827 0.805773 16.3127 1.45999 16.3127H24.5586C25.2129 16.3127 25.7437 15.7826 25.7437 15.1284V1.50266C25.7437 0.84839 25.2128 0.318359 24.5586 0.318359H1.45996H1.45999ZM1.22285 3.67865H3.07888L3.31844 4.17051V3.67863H5.49444L5.97038 4.75468L6.43439 3.67863H13.3444C13.6585 3.67863 13.9409 3.73675 14.1482 3.9214V3.67865H16.0393V3.92137C16.365 3.74225 16.768 3.67865 17.2268 3.67865H19.9678L20.2217 4.17051V3.67863H22.2513L22.5282 4.17051V3.67863H24.5053V7.84756H22.5075L22.1295 7.21642V7.84756H19.6368L19.3653 7.18298H18.7517L18.4747 7.84756H17.1805C16.6728 7.84756 16.2873 7.72709 16.0392 7.59366V7.84756H12.9639V6.90124C12.9639 6.76771 12.9402 6.75997 12.8596 6.75719H12.7442L12.7474 7.84756H6.80045V7.33182L6.58715 7.84916H5.34476L5.13146 7.33979V7.84756H2.739L2.46521 7.18298H1.85157L1.57699 7.84756H0.360859V5.66043L1.22282 3.67863L1.22285 3.67865ZM0.360859 7.27209H1.13368L1.40984 6.60354H2.89024L3.16321 7.27209H4.61017V4.9242L5.64405 7.27209H6.26879L7.29951 4.92657L7.3027 7.27209H8.03174V4.27715H6.84744L5.99264 6.30912L5.06142 4.2772H3.90102V7.11215L2.69125 4.27715H1.6343L0.360859 7.27212V7.27209ZM8.56577 4.27712V7.27209H10.9375V6.65208H9.27571V6.05443H10.8978V5.44079H9.27571V4.90115H10.9375V4.27717H8.56577V4.27712ZM11.4501 4.27712V7.27209H12.1632V6.18254H12.9281C13.1847 6.18254 13.3437 6.20536 13.4478 6.31067C13.5775 6.45475 13.56 6.71387 13.56 6.89406L13.5632 7.27212H14.2819V6.68315C14.2819 6.41573 14.2648 6.28294 14.1641 6.134C14.1007 6.04674 13.9675 5.9413 13.8115 5.8817C13.9964 5.80761 14.3138 5.56087 14.3138 5.08341C14.3138 4.74939 14.1779 4.55417 13.9524 4.42043C13.722 4.28664 13.4539 4.27717 13.0897 4.27717H11.4501V4.27712ZM14.7197 4.27712V7.27209H15.4455V4.27715H14.7197V4.27712ZM17.2522 4.27712C16.7617 4.27712 16.4015 4.38753 16.1714 4.62655C15.8655 4.94736 15.7878 5.35317 15.7878 5.7973C15.7878 6.34187 15.9181 6.68595 16.1682 6.94021C16.4163 7.19446 16.8537 7.27209 17.1997 7.27209H18.033L18.302 6.60354H19.78L20.057 7.27209H21.5063V5.02448L22.8553 7.27209H23.8645V4.27715H23.1355V6.36321L21.8843 4.27717H20.8003V7.10975L19.5953 4.27715H18.5288L17.526 6.63224H17.206C17.0187 6.63224 16.8198 6.59633 16.7102 6.47782C16.5779 6.32669 16.5144 6.09508 16.5144 5.77425C16.5144 5.46037 16.5976 5.22224 16.7189 5.09614C16.8602 4.95759 17.0068 4.91865 17.2665 4.91865H17.9414V4.27715H17.2522L17.2522 4.27712ZM2.14367 4.76902L2.626 5.96684H1.66455L2.14367 4.76902ZM19.0557 4.76902L19.5484 5.96684H18.5654L19.0557 4.76902ZM12.1553 4.89716H13.0347C13.1592 4.89716 13.2887 4.90301 13.373 4.95128C13.4656 4.99478 13.5226 5.08766 13.5226 5.21552C13.5226 5.34599 13.468 5.45052 13.3754 5.49886C13.2773 5.55838 13.1618 5.56095 13.0228 5.56095H12.1553V4.89713L12.1553 4.89716ZM5.38215 8.81219H9.2168L9.76677 9.4497L10.3549 8.81219H12.9217C13.2185 8.81219 13.7056 8.84293 13.9245 9.05575V8.81219H16.2183C16.4339 8.81219 16.9006 8.85536 17.1774 9.05575V8.81219H20.6547V9.05575C20.8276 8.88923 21.1933 8.81219 21.5047 8.81219H23.4523V9.05575C23.6567 8.90726 23.9447 8.81219 24.3421 8.81219H25.6593V9.40673H24.2418C23.4953 9.40673 23.2215 9.86237 23.2215 10.2957C23.2215 11.2412 24.0545 11.1978 24.7225 11.2206C24.8464 11.2206 24.9216 11.241 24.9732 11.2866C25.0256 11.3281 25.06 11.3978 25.06 11.4848C25.06 11.5664 25.026 11.6336 24.9764 11.6798C24.9192 11.7358 24.824 11.7538 24.6883 11.7538H23.3201V12.3945H24.6939C25.1497 12.3945 25.4865 12.2653 25.6593 12.0117V12.7885C25.3743 12.9267 24.9995 12.9811 24.6158 12.9811H22.7726V12.7137C22.559 12.8857 22.1737 12.9811 21.8048 12.9811H15.9931V12.0173C15.9931 11.8992 15.9811 11.8939 15.8634 11.8939H15.7718V12.9811H13.8585V11.8557C13.5383 11.9946 13.1753 12.0069 12.8676 12.0021H12.6392V12.9827L10.3199 12.9811L9.75007 12.3325L9.14439 12.9811H5.38218V8.81219H5.38215ZM6.02284 9.4107V12.4057H8.84274L9.75401 11.414L10.6303 12.4057H12.0144V11.4012H12.9026C13.5249 11.4012 14.1426 11.2295 14.1426 10.3976C14.1426 9.56828 13.5074 9.4107 12.9424 9.4107H10.6677L9.76201 10.3929L8.88652 9.4107H6.02287H6.02284ZM14.4634 9.4107V12.4057H15.1773V11.3121H15.9374C16.1968 11.3121 16.3556 11.3377 16.4595 11.445C16.5917 11.5843 16.5741 11.8506 16.5741 12.0308V12.4057H17.288V11.8119C17.2851 11.5479 17.2707 11.4113 17.1702 11.2651C17.1096 11.1779 16.9807 11.0724 16.8224 11.0136C17.0096 10.9389 17.3261 10.6949 17.3262 10.2169C17.3262 9.87531 17.1854 9.6888 16.9609 9.55236C16.7275 9.427 16.4646 9.41068 16.1045 9.41068H14.4634L14.4634 9.4107ZM17.7321 9.4107V12.4057H20.1039V11.7841L18.4397 11.7817V11.1855H20.0633V10.5743H18.4397V10.0299H20.1039V9.4107H17.7321ZM21.4617 9.4107C20.7164 9.4107 20.4453 9.86774 20.4453 10.3021C20.4453 11.2498 21.2784 11.2065 21.9432 11.2293C22.067 11.2293 22.1419 11.2505 22.1963 11.2962C22.2451 11.3377 22.2831 11.4063 22.2831 11.4936C22.2831 11.5753 22.2476 11.643 22.1987 11.6894C22.1388 11.7455 22.0438 11.7634 21.909 11.7634H20.5297V12.4057H21.9146C22.6315 12.4057 23.0312 12.1044 23.0312 11.4601C23.0312 11.1519 22.9571 10.97 22.8187 10.8258C22.6577 10.6616 22.3928 10.5949 22.0069 10.5854L21.6241 10.5751C21.503 10.5751 21.4221 10.5672 21.3471 10.5409C21.2576 10.5076 21.1919 10.431 21.1919 10.318C21.1919 10.223 21.2207 10.1508 21.2985 10.1023C21.37 10.0531 21.4542 10.0482 21.5835 10.0482H22.8872V9.4107H21.4617ZM11.3005 9.73146V12.1271L10.2109 10.9102L11.3005 9.73146ZM6.72802 10.0315H8.51323L9.29242 10.9054L8.479 11.7848H6.72802V11.1888H8.29117V10.5767H6.72802V10.0315V10.0315ZM12.0056 10.0315H12.9368C13.1946 10.0315 13.373 10.1372 13.373 10.4016C13.373 10.6631 13.2024 10.8011 12.9281 10.8011H12.0056V10.0315H12.0056ZM15.1892 10.0315H16.0687C16.1958 10.0315 16.3229 10.0342 16.4093 10.0848C16.5018 10.1326 16.5566 10.2235 16.5566 10.3499C16.5566 10.4762 16.5018 10.5779 16.4093 10.6332C16.3138 10.6892 16.1956 10.6945 16.0567 10.6945H15.1892V10.0315ZM24.3627 10.0522H25.6593V10.9078C25.6394 10.8821 25.622 10.8567 25.5932 10.8338C25.4349 10.669 25.1751 10.6015 24.7862 10.5918L24.4009 10.5815C24.2825 10.5815 24.2014 10.5736 24.1264 10.5472C24.0342 10.5139 23.9712 10.437 23.9712 10.3236C23.9712 10.2282 24.0004 10.1558 24.0754 10.1071C24.1479 10.0577 24.2333 10.0522 24.3627 10.0522V10.0522Z" fill="#F8F8F8"/>
</svg>
