<svg width="15" height="16" viewBox="0 0 15 16" fill="none" xmlns="http://www.w3.org/2000/svg">
<path fill-rule="evenodd" clip-rule="evenodd" d="M13.1563 10.8771L11.1032 10.6427C10.6101 10.5861 10.1251 10.7558 9.77749 11.1034L8.29015 12.5908C6.00257 11.4268 4.12724 9.55951 2.96324 7.26384L4.45865 5.76842C4.80624 5.42084 4.97599 4.93584 4.9194 4.44276L4.68499 2.40576C4.58799 1.58934 3.9009 0.975006 3.0764 0.975006H1.67799C0.764569 0.975006 0.00473567 1.73484 0.061319 2.64826C0.489736 9.55142 6.01065 15.0643 12.9057 15.4927C13.8192 15.5493 14.579 14.7894 14.579 13.876V12.4776C14.5871 11.6612 13.9727 10.9741 13.1563 10.8771Z" fill="#FF6633"/>
</svg>
