<svg width="17" height="14" viewBox="0 0 17 14" fill="none" xmlns="http://www.w3.org/2000/svg">
<path fill-rule="evenodd" clip-rule="evenodd" d="M15.1333 0.783325H2.19992C1.31075 0.783325 0.583252 1.51083 0.583252 2.39999V12.1C0.583252 12.9892 1.31075 13.7167 2.19992 13.7167H15.1333C16.0224 13.7167 16.7499 12.9892 16.7499 12.1V2.39999C16.7499 1.51083 16.0224 0.783325 15.1333 0.783325ZM14.8098 4.21871L9.52334 7.52479C8.99792 7.85621 8.33509 7.85621 7.80967 7.52479L2.52317 4.21871C2.32109 4.08937 2.19984 3.87112 2.19984 3.63671C2.19984 3.09512 2.78992 2.77179 3.25067 3.05471L8.6665 6.44162L14.0823 3.05471C14.5431 2.77179 15.1332 3.09512 15.1332 3.63671C15.1332 3.87112 15.0119 4.08937 14.8098 4.21871Z" fill="#29CC39"/>
</svg>
