<svg width="15" height="15" viewBox="0 0 15 15" fill="none" xmlns="http://www.w3.org/2000/svg">
<path d="M13.0329 0.64209H2.33599C1.49552 0.64209 0.807861 1.32975 0.807861 2.17021V12.8671C0.807861 13.7083 1.49552 14.3952 2.33599 14.3952H7.68442V9.04678H6.1563V7.15572H7.68442V5.58939C7.68442 3.93596 8.61047 2.77459 10.5619 2.77459L11.9395 2.77612V4.7665H11.0249C10.2654 4.7665 9.97661 5.33649 9.97661 5.86522V7.15649H11.9387L11.5047 9.04678H9.97661V14.3952H13.0329C13.8733 14.3952 14.561 13.7083 14.561 12.8671V2.17021C14.561 1.32975 13.8733 0.64209 13.0329 0.64209Z" fill="#F8F8F8"/>
</svg>
