<svg width="15" height="15" viewBox="0 0 15 15" fill="none" xmlns="http://www.w3.org/2000/svg">
<path d="M12.6142 0.64209H1.91729C1.07682 0.64209 0.38916 1.32975 0.38916 2.17021V12.8671C0.38916 13.7083 1.07682 14.3952 1.91729 14.3952H12.6142C13.4546 14.3952 14.1423 13.7083 14.1423 12.8671V2.17021C14.1423 1.32975 13.4546 0.64209 12.6142 0.64209ZM7.2535 11.7386C8.3758 11.7384 9.45206 11.2924 10.2456 10.4987C11.0391 9.70508 11.4849 8.62873 11.4849 7.50643C11.4849 7.24817 11.452 6.99909 11.4062 6.75459H12.6142V12.2681C12.6142 12.3375 12.6004 12.4062 12.5738 12.4703C12.5472 12.5345 12.5081 12.5927 12.4589 12.6417C12.4097 12.6907 12.3513 12.7294 12.2871 12.7558C12.2229 12.7822 12.1541 12.7956 12.0847 12.7953H2.44678C2.37735 12.7956 2.30855 12.7822 2.24432 12.7558C2.1801 12.7294 2.12171 12.6907 2.07251 12.6417C2.02331 12.5927 1.98427 12.5345 1.95763 12.4703C1.931 12.4062 1.91728 12.3375 1.91729 12.2681V6.75459H3.10082C3.05421 6.99909 3.02136 7.24817 3.02136 7.50643C3.02156 8.6288 3.46751 9.70514 4.26115 10.4988C5.05478 11.2924 6.13113 11.7384 7.2535 11.7386ZM4.60908 7.50643C4.60908 7.15916 4.67748 6.81529 4.81037 6.49445C4.94327 6.17362 5.13805 5.8821 5.38361 5.63654C5.62917 5.39098 5.92069 5.1962 6.24152 5.0633C6.56236 4.93041 6.90623 4.86201 7.2535 4.86201C7.60077 4.86201 7.94464 4.93041 8.26547 5.0633C8.58631 5.1962 8.87783 5.39098 9.12339 5.63654C9.36894 5.8821 9.56373 6.17362 9.69662 6.49445C9.82952 6.81529 9.89792 7.15916 9.89792 7.50643C9.89792 8.20777 9.61931 8.88039 9.12339 9.37632C8.62746 9.87224 7.95484 10.1508 7.2535 10.1508C6.55215 10.1508 5.87954 9.87224 5.38361 9.37632C4.88769 8.88039 4.60908 8.20777 4.60908 7.50643ZM12.0847 4.4624H10.8507C10.7106 4.462 10.5763 4.40616 10.4773 4.3071C10.3782 4.20803 10.3224 4.07378 10.322 3.93367V2.69818C10.322 2.40631 10.5588 2.17021 10.8499 2.17021H12.0839C12.3773 2.17021 12.6142 2.40631 12.6142 2.69818V3.93291C12.6142 4.22401 12.3773 4.4624 12.0847 4.4624Z" fill="#F8F8F8"/>
</svg>
