<svg width="15" height="15" viewBox="0 0 15 15" fill="none" xmlns="http://www.w3.org/2000/svg">
<path d="M3.60776 2.17021C3.60776 2.98165 3.06528 3.68 2.07887 3.68C1.15054 3.68 0.551514 3.02138 0.551514 2.20995C0.551514 1.37712 1.1322 0.64209 2.07964 0.64209C3.02708 0.64209 3.58943 1.33739 3.60776 2.17021ZM0.551514 14.3952V4.4624H3.60776V14.3952H0.551514ZM5.13589 7.8579C5.13589 6.67742 5.09692 5.69102 5.05795 4.83909H7.80399L7.94 6.15556H7.99807C8.38468 5.53591 9.33212 4.62744 10.9183 4.62744C12.8529 4.62744 14.3046 5.92253 14.3046 8.70906V14.3952H11.2484V9.15298C11.2484 7.93507 10.7846 7.00597 9.72026 7.00597C8.90883 7.00597 8.50235 7.66306 8.28917 8.20478C8.21124 8.39885 8.19214 8.66933 8.19214 8.94057V14.3952H5.13589V7.8579Z" fill="#F8F8F8"/>
</svg>
