<svg width="27" height="17" viewBox="0 0 27 17" fill="none" xmlns="http://www.w3.org/2000/svg">
<path d="M2.11624 0.547877C1.46195 0.547877 0.931152 1.07839 0.931152 1.73296V15.3572C0.931152 16.0116 1.46202 16.5423 2.11624 16.5423H25.2148C25.8691 16.5423 26.3999 16.0117 26.3999 15.3572V1.73294C26.3999 1.07847 25.8691 0.547852 25.2148 0.547852H2.11621L2.11624 0.547877ZM9.28251 2.47316C10.7363 2.47316 12.0715 2.97895 13.1195 3.8238C12.2377 4.61279 11.58 5.64939 11.2555 6.82434H11.7641C12.0636 5.85505 12.6077 4.99207 13.3249 4.3077C14.042 4.99207 14.5861 5.85505 14.8856 6.82434H15.4022C15.0732 5.65558 14.4146 4.62517 13.5334 3.84132C14.5835 2.98575 15.9239 2.47314 17.384 2.47314C20.7533 2.47314 23.4845 5.20471 23.4845 8.57451C23.4845 11.9443 20.7533 14.6759 17.384 14.6759C15.8996 14.6759 14.5386 14.1461 13.4809 13.2647C14.427 12.4416 15.1246 11.3381 15.4436 10.0827H14.9461C14.6629 11.1364 14.0928 12.0735 13.3249 12.8063C12.557 12.0735 11.9877 11.1364 11.7044 10.0827H11.2308C11.5517 11.3199 12.2401 12.408 13.172 13.2234C12.1163 14.0938 10.7606 14.617 9.28248 14.617C5.91322 14.617 3.18195 11.8985 3.18195 8.54506C3.18195 5.19159 5.91322 2.47316 9.28251 2.47316ZM16.9263 6.76225C16.1933 6.76225 15.4802 7.4031 15.4802 8.60634C15.4802 9.40423 15.8654 9.93072 16.6231 9.93072C16.8373 9.93079 17.1786 9.84318 17.1786 9.84318L17.2916 9.14597C17.2916 9.14597 16.9802 9.30355 16.7663 9.30355C16.3159 9.30355 16.1352 8.95715 16.1352 8.58487C16.1352 7.82965 16.5227 7.41407 16.9542 7.41407C17.2777 7.41407 17.5376 7.59714 17.5376 7.59714L17.641 6.91904C17.641 6.91904 17.2564 6.76225 16.9263 6.76225H16.9263ZM23.089 6.82116L22.4515 6.82274L22.3146 7.66163C22.3146 7.66163 22.0749 7.33609 21.7001 7.33609C21.1174 7.33609 20.632 8.02833 20.632 8.82443C20.632 9.33831 20.8903 9.84237 21.42 9.84237C21.8009 9.84237 22.0121 9.58055 22.0121 9.58055L21.9843 9.80416H22.6035L23.089 6.82116ZM4.82945 6.8299L4.32168 9.82008H4.93372L5.32054 7.56533L5.37784 9.82008H5.81557L6.63218 7.56533L6.27004 9.82008H6.92028L7.42171 6.8299H6.41569L5.78932 8.66444L5.75669 6.82992H4.82948L4.82945 6.8299ZM11.2237 7.0241C11.2099 7.03798 10.8536 9.09234 10.8536 9.34254C10.8536 9.71301 11.0613 9.87848 11.3534 9.87581C11.5628 9.87402 11.7249 9.82143 11.7999 9.7994C11.8078 9.79729 11.823 9.79303 11.823 9.79303L11.9018 9.25819C11.859 9.25819 11.7959 9.2765 11.7402 9.2765C11.5221 9.2765 11.4979 9.16044 11.5118 9.07433L11.6877 7.98317H12.0196L12.1 7.39179H11.7872L11.8509 7.0241H11.2237ZM18.6216 7.32496C18.1944 7.32496 17.8671 7.46583 17.8671 7.46583L17.7763 8.01501C17.7763 8.01501 18.0467 7.90277 18.4553 7.90277C18.6872 7.90277 18.8572 7.92931 18.8572 8.12244C18.8572 8.23975 18.8365 8.28322 18.8365 8.28322C18.8365 8.28322 18.653 8.2673 18.5683 8.2673C18.0295 8.2673 17.4636 8.5034 17.4636 9.21362C17.4636 9.77322 17.8351 9.90128 18.0653 9.90128C18.5048 9.90128 18.6943 9.60928 18.7044 9.60839L18.6837 9.85194H19.2321L19.4772 8.0946C19.4773 7.34892 18.8422 7.32493 18.6216 7.32493V7.32496ZM8.33459 7.32814C7.90585 7.32814 7.57689 7.46901 7.57689 7.46901L7.48617 8.01819C7.48617 8.01819 7.75741 7.90595 8.16746 7.90595C8.4003 7.90595 8.57099 7.93259 8.57099 8.12562C8.57099 8.24288 8.55028 8.2864 8.55028 8.2864C8.55028 8.2864 8.36632 8.27049 8.28128 8.27049C7.7405 8.27049 7.1726 8.5062 7.1726 9.21601C7.1726 9.77531 7.5449 9.90367 7.77588 9.90367C8.21702 9.90367 8.40725 9.61164 8.41739 9.61078L8.39668 9.85431H8.94744L9.19337 8.09778C9.19337 7.35254 8.55596 7.32812 8.33459 7.32812V7.32814ZM10.2798 7.32814C9.81936 7.32814 9.35176 7.51399 9.35176 8.14872C9.35176 8.86791 10.1309 8.79524 10.1309 9.0982C10.1309 9.30042 9.9135 9.3171 9.74573 9.3171C9.45539 9.3171 9.19431 9.21678 9.19337 9.22159L9.10981 9.77075C9.12483 9.77541 9.28651 9.84794 9.80862 9.84794C9.9488 9.84794 10.7501 9.88355 10.7501 9.04886C10.7501 8.26853 10.0084 8.4232 10.0084 8.1097C10.0084 7.95363 10.1288 7.90437 10.3498 7.90437C10.4376 7.90437 10.7756 7.93224 10.7756 7.93224L10.8536 7.37748C10.8536 7.37755 10.6355 7.32814 10.2798 7.32814H10.2798ZM13.1577 7.32814C12.518 7.32827 12.0443 8.01623 12.0443 8.79338C12.0443 9.69037 12.6378 9.90367 13.1434 9.90367C13.6102 9.90367 13.8159 9.7994 13.8159 9.7994L13.9274 9.18736C13.9274 9.18736 13.5723 9.34336 13.2517 9.34336C12.5684 9.34336 12.6882 8.83477 12.6882 8.83477H13.9815C13.9815 8.83477 14.0651 8.42376 14.0651 8.25615C14.0651 7.83795 13.8564 7.32814 13.1578 7.32814H13.1577ZM15.4746 7.3544C15.1864 7.3544 14.9724 7.74201 14.9724 7.74201L15.0297 7.38624H14.4312L14.0293 9.84239H14.6906C14.878 8.79354 14.9122 7.94189 15.3592 8.09778C15.4374 7.69181 15.5134 7.53497 15.5988 7.36316C15.5988 7.36316 15.5586 7.3544 15.4746 7.3544H15.4746ZM20.8334 7.3544C20.5452 7.3544 20.3312 7.74201 20.3312 7.74201L20.3885 7.38624H19.79L19.388 9.84239H20.0486C20.236 8.79354 20.2711 7.94189 20.718 8.09778C20.7964 7.69181 20.8722 7.53497 20.9576 7.36316C20.9576 7.36316 20.9174 7.3544 20.8334 7.3544H20.8334ZM13.1545 7.88209C13.5179 7.88209 13.4514 8.29224 13.4514 8.3254H12.7359C12.7359 8.28307 12.8036 7.88209 13.1546 7.88209H13.1545ZM21.8004 7.92984C22.0317 7.92977 22.1506 8.08599 22.1506 8.45353C22.1506 8.78702 21.9824 9.23272 21.6341 9.23272C21.4029 9.23272 21.2942 9.04178 21.2942 8.74245C21.2942 8.25299 21.5181 7.92984 21.8004 7.92984H21.8004ZM18.6224 8.76552C18.7167 8.76565 18.7362 8.77482 18.7521 8.77907C18.7498 8.77869 18.7494 8.77912 18.7585 8.78065C18.7704 8.89004 18.6924 9.40306 18.3152 9.40306C18.1206 9.40306 18.0708 9.24838 18.0708 9.1571C18.0708 8.97913 18.1635 8.76552 18.6224 8.76552ZM8.3354 8.76792C8.44255 8.76804 8.45424 8.78001 8.4723 8.78304C8.48427 8.89238 8.40592 9.40464 8.02738 9.40464C7.83211 9.40464 7.78146 9.2507 7.78146 9.1595C7.78146 8.98162 7.87467 8.76792 8.3354 8.76792Z" fill="#F8F8F8"/>
</svg>
