<svg width="27" height="21" viewBox="0 0 27 21" fill="none" xmlns="http://www.w3.org/2000/svg">
<path d="M14.3248 8.6528C14.3248 9.41368 13.8608 9.85142 13.0426 9.85142H11.9682V7.45497H13.0474C13.8608 7.45497 14.3248 7.88794 14.3248 8.6528ZM16.4252 11.4209C16.4252 11.7878 16.7435 12.0266 17.2434 12.0266C17.8801 12.0266 18.3576 11.6247 18.3576 11.058V10.7174L17.3182 10.7834C16.73 10.8232 16.4252 11.0397 16.4252 11.4201V11.4209ZM26.4312 2.48936V18.0539C26.431 18.6168 26.2073 19.1566 25.8093 19.5547C25.4112 19.9527 24.8715 20.1764 24.3086 20.1766H3.08433C2.52143 20.1764 1.98165 19.9527 1.58362 19.5547C1.18559 19.1566 0.961881 18.6168 0.96167 18.0539V2.48936C0.961881 1.92646 1.18559 1.38668 1.58362 0.988645C1.98165 0.590615 2.52143 0.36691 3.08433 0.366699H24.3086C24.8715 0.36691 25.4112 0.590615 25.8093 0.988645C26.2073 1.38668 26.431 1.92646 26.4312 2.48936ZM6.61334 7.71523C6.98503 7.74627 7.35592 7.52979 7.59071 7.2552C7.82072 6.97186 7.97115 6.59222 7.93135 6.207C7.60424 6.22053 7.19753 6.42349 6.96274 6.70683C6.75024 6.95037 6.56957 7.34354 6.61334 7.71523ZM9.29313 11.0095C9.28438 11.0007 8.4264 10.6736 8.41765 9.68269C8.40889 8.85575 9.09416 8.4578 9.1252 8.43552C8.73601 7.86088 8.13431 7.7988 7.92658 7.78527C7.38696 7.75423 6.92693 8.0901 6.67065 8.0901C6.40959 8.0901 6.0204 7.798 5.59619 7.80755C5.31923 7.81491 5.04902 7.89469 4.81248 8.03893C4.57593 8.18318 4.38129 8.38686 4.24793 8.62972C3.66852 9.62936 4.09751 11.1058 4.65941 11.9192C4.9332 12.3211 5.26509 12.7636 5.69886 12.7461C6.10954 12.7286 6.2735 12.4811 6.76855 12.4811C7.26837 12.4811 7.41004 12.7461 7.84301 12.7421C8.29428 12.7334 8.57285 12.3402 8.85141 11.9375C9.15624 11.4774 9.28438 11.0357 9.29393 11.0087L9.29313 11.0095ZM15.2799 8.64882C15.2799 7.47248 14.4617 6.66783 13.2941 6.66783H11.0306V12.6991H11.9682V10.6386H13.2639C14.449 10.6386 15.2799 9.82516 15.2799 8.64882ZM19.2594 9.69622C19.2594 8.82551 18.5606 8.2636 17.4909 8.2636C16.496 8.2636 15.7622 8.83426 15.7351 9.61186H16.5796C16.6504 9.24017 16.995 8.99742 17.4638 8.99742C18.0385 8.99742 18.3568 9.26246 18.3568 9.7583V10.0902L17.1892 10.161C16.1012 10.2271 15.5139 10.6744 15.5139 11.448C15.5139 12.2304 16.1196 12.7477 16.9903 12.7477C17.5784 12.7477 18.122 12.4516 18.3696 11.9781H18.3871V12.7031H19.2538V9.69622H19.2594ZM23.7785 8.32091H22.8282L21.7275 11.8849H21.7099L20.6092 8.32091H19.6231L21.2101 12.7119L21.1266 12.9769C20.9849 13.4282 20.7509 13.6049 20.3354 13.6049C20.2438 13.6032 20.1522 13.5987 20.0608 13.5913V14.3164C20.1142 14.3339 20.3482 14.3387 20.419 14.3387C21.3343 14.3387 21.7633 13.9893 22.1389 12.9323L23.7785 8.32091Z" fill="#F8F8F8"/>
</svg>
