<svg width="27" height="21" viewBox="0 0 27 21" fill="none" xmlns="http://www.w3.org/2000/svg">
<path d="M8.82502 10.4127C8.82502 10.9523 8.39603 11.363 7.85243 11.363C7.44572 11.363 7.14487 11.133 7.14487 10.7C7.14487 10.1604 7.56511 9.72743 8.10473 9.72743C8.51621 9.72743 8.82581 9.97973 8.82581 10.4127H8.82502ZM4.14672 8.26855H3.93899C3.87293 8.26855 3.80608 8.31312 3.79732 8.38793L3.6071 9.56905L3.97003 9.55552C4.45633 9.55552 4.83199 9.48946 4.92034 8.92755C5.02221 8.33461 4.64655 8.26855 4.14672 8.26855ZM16.7044 8.26855H16.5054C16.4258 8.26855 16.3725 8.31312 16.3638 8.38793L16.1783 9.56905L16.5317 9.55552C17.1063 9.55552 17.5043 9.4226 17.5043 8.75962C17.4995 8.29083 17.0801 8.26855 16.7036 8.26855H16.7044ZM26.0562 2.53331V18.0979C26.056 18.6608 25.8323 19.2006 25.4343 19.5986C25.0362 19.9966 24.4965 20.2203 23.9336 20.2206H2.70933C2.14643 20.2203 1.60665 19.9966 1.20862 19.5986C0.810585 19.2006 0.586881 18.6608 0.58667 18.0979V2.53331C0.586881 1.97041 0.810585 1.43062 1.20862 1.03259C1.60665 0.63456 2.14643 0.410855 2.70933 0.410645H23.9336C24.4965 0.410855 25.0362 0.63456 25.4343 1.03259C25.8323 1.43062 26.056 1.97041 26.0562 2.53331ZM6.26063 8.52005C6.26063 7.59124 5.54432 7.28164 4.72614 7.28164H2.95765C2.90052 7.28207 2.84554 7.30347 2.80314 7.34176C2.76074 7.38005 2.73387 7.43258 2.72764 7.48937L2.00257 12.0037C1.98904 12.092 2.0559 12.1804 2.14424 12.1804H2.98471C3.1041 12.1804 3.21473 12.0522 3.22826 11.9281L3.42723 10.7518C3.4718 10.4334 4.01062 10.544 4.22313 10.544C5.48781 10.544 6.26143 9.7927 6.26143 8.51926L6.26063 8.52005ZM9.98384 8.90925H9.14337C8.97544 8.90925 8.96669 9.15279 8.95793 9.27218C8.70165 8.89651 8.32997 8.82966 7.90973 8.82966C6.82651 8.82966 5.99958 9.77996 5.99958 10.8282C5.99958 11.6901 6.53919 12.252 7.40115 12.252C7.7991 12.252 8.29415 12.0355 8.57272 11.7259C8.54699 11.8154 8.53203 11.9075 8.52814 12.0005C8.52814 12.1024 8.57271 12.1772 8.66981 12.1772H9.43069C9.55008 12.1772 9.65195 12.0491 9.67424 11.9249L10.1255 9.08196C10.139 8.99759 10.0722 8.90925 9.98384 8.90925ZM11.7746 13.2381L14.5913 9.14324C14.6136 9.12096 14.6136 9.09867 14.6136 9.06843C14.6136 8.99361 14.5475 8.91402 14.4719 8.91402H13.6227C13.5832 8.91558 13.5446 8.9264 13.51 8.94562C13.4755 8.96484 13.4459 8.99191 13.4237 9.02465L12.2522 10.7494L11.7659 9.09151C11.7476 9.04108 11.7146 8.99729 11.6712 8.9658C11.6278 8.9343 11.5759 8.91654 11.5223 8.91482H10.6954C10.6198 8.91482 10.5537 8.99441 10.5537 9.06922C10.5537 9.12255 11.4157 11.5811 11.4913 11.8151C11.3719 11.983 10.5847 13.0798 10.5847 13.2127C10.5847 13.2923 10.6508 13.3543 10.7264 13.3543H11.5756C11.6154 13.3517 11.654 13.34 11.6884 13.3202C11.7229 13.3003 11.7524 13.2728 11.7746 13.2397V13.2381ZM18.8183 8.52005C18.8183 7.59124 18.102 7.28164 17.2838 7.28164H15.5281C15.4693 7.28116 15.4123 7.30191 15.3675 7.34007C15.3228 7.37822 15.2933 7.43123 15.2845 7.48937L14.5682 11.9997C14.5595 12.0881 14.6255 12.1764 14.7099 12.1764H15.6164C15.7048 12.1764 15.7708 12.1104 15.7931 12.0347L15.9921 10.7525C16.0366 10.4342 16.5763 10.5448 16.788 10.5448C18.0439 10.5448 18.8175 9.79349 18.8175 8.52005H18.8183ZM22.5407 8.90925H21.7003C21.5323 8.90925 21.5236 9.15279 21.51 9.27218C21.2665 8.89651 20.8908 8.82966 20.4618 8.82966C19.3786 8.82966 18.5517 9.77996 18.5517 10.8282C18.5517 11.6901 19.0913 12.252 19.9533 12.252C20.3647 12.252 20.8598 12.0355 21.1248 11.7259C21.1113 11.792 21.0803 11.9337 21.0803 12.0005C21.0803 12.1024 21.1248 12.1772 21.2219 12.1772H21.9868C22.1062 12.1772 22.208 12.0491 22.2303 11.9249L22.6816 9.08196C22.6951 8.99759 22.6283 8.90925 22.5399 8.90925H22.5407ZM24.6411 7.43684C24.6411 7.34849 24.575 7.28243 24.4994 7.28243H23.6813C23.6152 7.28243 23.5483 7.33576 23.5396 7.40182L22.8233 12.0005L22.8105 12.0228C22.8105 12.1024 22.8766 12.1772 22.9649 12.1772H23.6948C23.8054 12.1772 23.916 12.0491 23.9248 11.9249L24.6411 7.45037V7.43684ZM20.6616 9.72743C20.122 9.72743 19.7018 10.1564 19.7018 10.7C19.7018 11.129 20.0114 11.363 20.4181 11.363C20.9489 11.363 21.3779 10.9563 21.3779 10.4127C21.3827 9.97973 21.0731 9.72743 20.6616 9.72743Z" fill="#F8F8F8"/>
</svg>
