<svg width="12" height="17" viewBox="0 0 12 17" fill="none" xmlns="http://www.w3.org/2000/svg">
<path d="M4.95267 10.984C4.55078 13.0883 4.06101 15.1054 2.60853 16.159C2.16079 12.979 3.26639 10.5913 3.7806 8.05614C2.90422 6.5815 3.88604 3.6154 5.73278 4.34661C8.00587 5.24515 3.76455 9.82647 6.61145 10.3995C9.58442 10.9962 10.7978 5.24209 8.95407 3.3709C6.29131 0.667651 1.20189 3.30749 1.82842 7.17746C1.98047 8.12337 2.95771 8.4099 2.21886 9.71568C0.514233 9.33823 0.00536729 7.99348 0.0710767 6.20099C0.176517 3.26699 2.70633 1.21396 5.24454 0.928961C8.45437 0.569087 11.4671 2.10791 11.8835 5.12672C12.3519 8.5352 10.4348 12.2272 7.00189 11.9613C6.07126 11.8887 5.68159 11.4272 4.95267 10.984Z" fill="#F8F8F8"/>
</svg>
