<svg width="13" height="14" viewBox="0 0 13 14" fill="none" xmlns="http://www.w3.org/2000/svg">
<path fill-rule="evenodd" clip-rule="evenodd" d="M5.8741 1.4001V10.3361L1.9701 6.4321C1.6581 6.1201 1.1461 6.1201 0.834098 6.4321C0.522098 6.7441 0.522098 7.2481 0.834098 7.5601L6.1061 12.8321C6.4181 13.1441 6.9221 13.1441 7.2341 12.8321L12.5061 7.5601C12.8181 7.2481 12.8181 6.7441 12.5061 6.4321C12.3566 6.2823 12.1537 6.19811 11.9421 6.19811C11.7305 6.19811 11.5276 6.2823 11.3781 6.4321L7.4741 10.3361V1.4001C7.4741 0.960098 7.1141 0.600098 6.6741 0.600098C6.2341 0.600098 5.8741 0.960098 5.8741 1.4001Z" fill="#C3CAD9"/>
</svg>
