<svg width="15" height="13" viewBox="0 0 15 13" fill="none" xmlns="http://www.w3.org/2000/svg">
<path d="M13.4369 3.65049C13.443 3.77426 13.4453 3.89957 13.4453 4.02335C13.4453 7.83602 10.5441 12.2309 5.23926 12.2309C3.60951 12.2309 2.09438 11.7534 0.817627 10.9343C1.57281 11.0256 2.33858 10.9672 3.07118 10.7624C3.80378 10.5577 4.48884 10.2105 5.08721 9.74083C4.48545 9.72945 3.90228 9.53032 3.41924 9.17126C2.93621 8.8122 2.57745 8.31117 2.39312 7.73822C2.82563 7.8191 3.27076 7.80213 3.69585 7.68856C3.04304 7.55618 2.45608 7.20218 2.03443 6.68654C1.61278 6.17089 1.38238 5.52532 1.38227 4.85923V4.82332C1.78279 5.04612 2.23073 5.17003 2.68882 5.18472C2.07747 4.77716 1.64471 4.15165 1.47886 3.43586C1.31301 2.72008 1.42658 1.96798 1.79639 1.33308C2.52056 2.22433 3.42411 2.95328 4.44836 3.47258C5.4726 3.99187 6.59463 4.2899 7.74156 4.34731C7.69194 4.13155 7.66708 3.91084 7.66745 3.68945C7.66745 3.31081 7.74204 2.93588 7.88696 2.58607C8.03188 2.23626 8.2443 1.91843 8.51207 1.65073C8.77985 1.38303 9.09774 1.1707 9.44758 1.02587C9.79743 0.881036 10.1724 0.806544 10.551 0.806644C10.9456 0.806001 11.3362 0.886443 11.6984 1.04298C12.0606 1.19952 12.3868 1.42881 12.6568 1.71664C13.3025 1.58881 13.9218 1.35215 14.4882 1.01676C14.2728 1.68471 13.8221 2.25166 13.2199 2.61212C13.7916 2.54435 14.35 2.39137 14.8764 2.15827C14.4897 2.73776 14.0021 3.24318 13.4369 3.65049Z" fill="#F8F8F8"/>
</svg>
