<svg width="27" height="17" viewBox="0 0 27 17" fill="none" xmlns="http://www.w3.org/2000/svg">
<path d="M1.6374 0.318359C1.07487 0.318359 0.618652 0.774454 0.618652 1.33711V15.294C0.618652 15.8566 1.0751 16.3127 1.6374 16.3127H25.0687C25.6312 16.3127 26.0874 15.8566 26.0874 15.294V1.33711C26.0874 0.774479 25.631 0.318359 25.0687 0.318359H1.6374ZM15.8299 5.08499C16.4497 5.08499 16.9465 5.22191 17.2633 5.34923L17.0468 6.71102L16.9035 6.63858C16.6084 6.51126 16.2294 6.38873 15.7065 6.39742C15.0806 6.39742 14.7912 6.67663 14.7912 6.93787C14.7876 7.23221 15.1293 7.42633 15.6882 7.71703C16.6106 8.16554 17.0369 8.70934 17.0309 9.42423C17.0185 10.7287 15.9275 11.5716 14.2468 11.5716C13.5298 11.5637 12.839 11.4119 12.4656 11.2365L12.6901 9.82933L12.8962 9.92963C13.4213 10.1642 13.7613 10.2591 14.4012 10.2591C14.8608 10.2591 15.354 10.0667 15.3579 9.6455C15.3609 9.37044 15.1517 9.17433 14.5294 8.86631C13.9229 8.56568 13.1189 8.06208 13.1278 7.15911C13.1373 5.93761 14.25 5.08499 15.8299 5.08499ZM2.87103 5.28477H5.45214C5.79971 5.29791 6.08032 5.40982 6.17721 5.78698L6.73355 8.65859C6.73362 8.65884 6.73344 8.65988 6.73355 8.66016L6.90067 9.52055L8.46779 5.28477H10.1631L7.64324 11.4848L5.94957 11.4864L4.60133 6.48338C5.40354 6.90837 6.08651 7.4001 6.48204 8.07678C6.38007 7.86266 6.24569 7.62096 6.07375 7.38275C5.87352 7.10535 5.44108 6.74718 5.26033 6.5948C4.63049 6.06386 3.77512 5.63504 2.85114 5.40814L2.87103 5.28477ZM10.8372 5.29192H12.4951L11.458 11.4824H9.80014L10.8372 5.29192ZM20.2009 5.29192H21.4569L22.7717 11.4824H21.2643C21.2643 11.4824 21.1147 10.7712 21.0661 10.5544C20.8291 10.5544 19.1721 10.552 18.9856 10.552C18.9225 10.7196 18.6434 11.4824 18.6434 11.4824H16.9378L19.3501 5.80609C19.5209 5.40271 19.8121 5.29192 20.2009 5.29192ZM20.3243 6.95694C20.2427 7.1872 20.1007 7.55905 20.1102 7.54272C20.1102 7.54272 19.5999 8.90377 19.4663 9.2571L20.8074 9.25629C20.6828 8.66599 20.5581 8.07572 20.4333 7.48547L20.3243 6.95699V6.95694Z" fill="#F8F8F8"/>
</svg>
